<?xml version="1.0" encoding="utf-8"?>
<!-- Generator: Adobe Illustrator 24.3.0, SVG Export Plug-In . SVG Version: 6.00 Build 0)  -->
<svg version="1.1" id="Layer_1" xmlns="http://www.w3.org/2000/svg" xmlns:xlink="http://www.w3.org/1999/xlink" x="0px" y="0px"
	 viewBox="0 0 170 69" style="enable-background:new 0 0 170 69;" xml:space="preserve">
<style type="text/css">
	.st0{fill:#213064;stroke:#030303;stroke-width:3.646040e-02;stroke-miterlimit:10;}
	.st1{fill:#FFFFFF;stroke:#030303;stroke-width:3.646040e-02;stroke-miterlimit:10;}
	.st2{fill:#FFFFFF;}
	.st3{fill:#BB1F3A;stroke:#030303;stroke-width:3.646040e-02;stroke-miterlimit:10;}
	.st4{fill:url(#SVGID_1_);}
	.st5{fill:url(#SVGID_2_);}
	.st6{fill:url(#SVGID_3_);}
	.st7{fill:url(#SVGID_4_);}
	.st8{fill:none;stroke:#FFFFFF;stroke-width:1.3126;stroke-miterlimit:10;}
	.st9{fill:#213164;}
	.st10{enable-background:new    ;}
	.st11{fill:#213064;}
</style>
<polygon class="st0" points="52.8,53.8 18.1,52.9 17.8,16.1 53.9,16 "/>
<rect x="37.9" y="15.5" class="st1" width="16.4" height="17.3"/>
<polygon class="st2" points="28.7,25.3 30.4,30.9 35.8,31.1 31.6,34.8 33.1,40.3 28.7,36.8 24.4,40.3 25.9,34.8 21.7,31.1 27,30.9 
	"/>
<rect x="37.9" y="32.5" class="st3" width="15" height="21.1"/>
<g>
	
		<linearGradient id="SVGID_1_" gradientUnits="userSpaceOnUse" x1="7.5252" y1="-322.4709" x2="49.4134" y2="-313.5794" gradientTransform="matrix(1 0 0 -1 0 -302)">
		<stop  offset="0" style="stop-color:#5386C5"/>
		<stop  offset="1" style="stop-color:#19315B"/>
	</linearGradient>
	<path class="st4" d="M35.8,6.7c-13,0-23.9,9.3-26.2,21.7c3-6.7,8.8-9.3,9-9.5l0,0l0,0l0,0l0,0l2.7-0.9c4-1.3,9.1-2,14.4-2
		s10.5,0.7,14.4,2l2.7,0.9l0,0c0.9-3.1-0.3-6.5-3.1-8.2c-2.5-1.6-5.3-2.7-8.3-3.4C39.7,6.9,37.8,6.7,35.8,6.7z"/>
	
		<linearGradient id="SVGID_2_" gradientUnits="userSpaceOnUse" x1="52.975" y1="-310.0643" x2="48.2248" y2="-354.9934" gradientTransform="matrix(1 0 0 -1 0 -302)">
		<stop  offset="0" style="stop-color:#5386C5"/>
		<stop  offset="1" style="stop-color:#19315B"/>
	</linearGradient>
	<path class="st5" d="M41,7.2c12.9,4.4,12,14.6,12,14.6v4.4c0,2-0.2,3.9-0.5,5.8c-0.8,5-2.6,9.5-5.3,13.1c-1.4,1.9-2.9,3.4-4.6,4.7
		c-1.8,1.3-3.8,2.3-5.8,2.8l-1,0.2l4.8,2.3c4.3,2.1,9.4,1.4,13-1.8c0,0,0,0,0.1-0.1c5.5-4.9,8.9-12,8.9-19.9
		C62.5,20.4,53.3,9.6,41,7.2z"/>
	
		<linearGradient id="SVGID_3_" gradientUnits="userSpaceOnUse" x1="45.0844" y1="-364.0763" x2="11.5741" y2="-331.5402" gradientTransform="matrix(1 0 0 -1 0 -302)">
		<stop  offset="0" style="stop-color:#5386C5"/>
		<stop  offset="1" style="stop-color:#19315B"/>
	</linearGradient>
	<path class="st6" d="M35.8,52.8L35.8,52.8c0,0-4.9-1.7-6.7-3c-1.7-1.2-3.3-2.8-4.6-4.7C21.8,41.5,20,37,19.2,32
		c-0.3-1.9-0.5-3.9-0.5-5.8v-4.4V19c0,0-7,1.7-8.8,8.5c-0.5,1.9-0.7,3.9-0.7,5.9c0,14.7,11.9,26.7,26.7,26.7
		c6.9,0,13.2-2.6,17.9-6.9C47,55.1,35.8,52.8,35.8,52.8z"/>
</g>
<linearGradient id="SVGID_4_" gradientUnits="userSpaceOnUse" x1="8.2009" y1="-322.7393" x2="50.6275" y2="-312.5406" gradientTransform="matrix(1 0 0 -1 0 -302)">
	<stop  offset="0" style="stop-color:#5386C5"/>
	<stop  offset="1" style="stop-color:#19315B"/>
</linearGradient>
<path class="st7" d="M21.4,18.1c2.9-0.8,6.3-1.5,10-1.8V7.1C20.4,9,11.7,17.5,9.7,28.5C13.2,21.2,17.6,19.1,21.4,18.1z"/>
<g>
	<g>
		<path class="st8" d="M18.7,18.4V24c0,2.3,0.2,4.6,0.5,6.7c1.9,11.4,8.4,20.2,16.5,22.3c8.2-2.1,14.7-11,16.5-22.3
			c0.3-2.2,0.5-4.4,0.5-6.7v-5.6c-4.4-1.4-10.5-2.3-17.1-2.3S23.2,17,18.7,18.4z"/>
	</g>
</g>
<path class="st9" d="M72.2,40.4V20.3H65v-4.6h19.8v4.6h-7.2v20.1H72.2z"/>
<path class="st9" d="M83.2,31.4c0-5.2,3.8-9.4,9.3-9.4c5.3,0,9,4,9,9.9v1H88.2c0.3,2.3,2.1,4.2,5.2,4.2c1.5,0,3.6-0.7,4.8-1.8l2.1,3
	c-1.8,1.6-4.6,2.5-7.4,2.5C87.4,40.9,83.2,37.2,83.2,31.4z M92.5,25.8c-2.9,0-4.2,2.2-4.4,4h8.8C96.8,28,95.6,25.8,92.5,25.8z"/>
<path class="st9" d="M116,40.4l-4.1-6.1l-4.1,6.1h-5.2l6.3-9.2l-6-8.7h5.3l3.7,5.5l3.7-5.5h5.3l-6,8.7l6.4,9.2H116z"/>
<path class="st9" d="M134.4,40.4v-1.9c-1.2,1.4-3.3,2.3-5.7,2.3c-2.9,0-6.2-1.9-6.2-5.9c0-4.2,3.4-5.8,6.2-5.8
	c2.4,0,4.5,0.8,5.7,2.2v-2.4c0-1.8-1.6-3-3.9-3c-1.9,0-3.7,0.7-5.2,2.1l-1.8-3.2c2.2-1.9,5-2.8,7.8-2.8c4.1,0,7.8,1.6,7.8,6.8v11.6
	H134.4z M134.4,36.1v-2.2c-0.8-1-2.3-1.6-3.8-1.6c-1.9,0-3.4,1-3.4,2.7c0,1.7,1.5,2.6,3.4,2.6C132.1,37.7,133.6,37.1,134.4,36.1z"/>
<path class="st9" d="M142.2,38.1l2-3.3c1.3,1.2,4,2.5,6.2,2.5c2,0,3-0.8,3-1.9c0-3-10.7-0.6-10.7-7.6c0-3,2.6-5.6,7.4-5.6
	c3,0,5.5,1,7.2,2.5l-1.9,3.2c-1.1-1.2-3.1-2.1-5.3-2.1c-1.7,0-2.8,0.8-2.8,1.8c0,2.7,10.6,0.4,10.6,7.7c0,3.3-2.8,5.8-7.8,5.8
	C147.1,40.9,144.1,39.8,142.2,38.1z"/>
<g class="st10">
	<path class="st11" d="M64.9,52.4v-7.9h1.7v7.9H64.9z"/>
	<path class="st11" d="M71.8,52.4v-3.5c0-0.8-0.4-1.1-1-1.1c-0.6,0-1,0.3-1.3,0.7v3.9H68v-5.7h1.5v0.8c0.4-0.4,1-0.9,2-0.9
		c1.2,0,1.8,0.7,1.8,1.8v4.1H71.8z"/>
	<path class="st11" d="M74.3,51.7l0.6-1.1c0.4,0.4,1.2,0.8,1.9,0.8c0.6,0,0.9-0.3,0.9-0.6c0-1-3.3-0.2-3.3-2.4c0-1,0.8-1.8,2.3-1.8
		c1,0,1.7,0.3,2.3,0.8l-0.6,1c-0.3-0.4-1-0.7-1.7-0.7c-0.5,0-0.9,0.2-0.9,0.6c0,0.9,3.3,0.1,3.3,2.5c0,1-0.9,1.8-2.4,1.8
		C75.8,52.6,74.8,52.2,74.3,51.7z"/>
	<path class="st11" d="M84.1,52.4v-0.7c-0.4,0.4-1.1,0.9-2,0.9c-1.2,0-1.8-0.7-1.8-1.8v-4.1h1.5v3.5c0,0.8,0.4,1.1,1,1.1
		c0.6,0,1-0.3,1.3-0.7v-3.9h1.5v5.7H84.1z"/>
	<path class="st11" d="M87,52.4v-5.7h1.5v0.8c0.4-0.5,1.1-0.9,1.8-0.9V48c-0.1,0-0.2,0-0.4,0c-0.5,0-1.1,0.3-1.4,0.7v3.8H87z"/>
	<path class="st11" d="M94.6,52.4v-0.6c-0.4,0.5-1,0.7-1.8,0.7c-0.9,0-2-0.6-2-1.9c0-1.3,1.1-1.9,2-1.9c0.7,0,1.4,0.2,1.8,0.7v-0.8
		c0-0.6-0.5-1-1.2-1c-0.6,0-1.2,0.2-1.6,0.7l-0.6-1c0.7-0.6,1.6-0.9,2.5-0.9c1.3,0,2.5,0.5,2.5,2.2v3.7H94.6z M94.6,51v-0.7
		c-0.2-0.3-0.7-0.5-1.2-0.5c-0.6,0-1.1,0.3-1.1,0.9c0,0.5,0.5,0.8,1.1,0.8C93.9,51.5,94.3,51.4,94.6,51z"/>
	<path class="st11" d="M101.3,52.4v-3.5c0-0.8-0.4-1.1-1-1.1c-0.6,0-1,0.3-1.3,0.7v3.9h-1.5v-5.7H99v0.8c0.4-0.4,1-0.9,2-0.9
		c1.2,0,1.8,0.7,1.8,1.8v4.1H101.3z"/>
	<path class="st11" d="M103.9,49.5c0-1.8,1.2-3,3-3c1.2,0,1.8,0.5,2.2,1l-1,0.9c-0.3-0.4-0.7-0.6-1.2-0.6c-0.9,0-1.5,0.7-1.5,1.7
		s0.6,1.7,1.5,1.7c0.5,0,0.9-0.2,1.2-0.6l1,0.9c-0.4,0.5-1.1,1-2.2,1C105.1,52.6,103.9,51.3,103.9,49.5z"/>
	<path class="st11" d="M109.7,49.5c0-1.7,1.2-3,2.9-3c1.7,0,2.8,1.3,2.8,3.2V50h-4.2c0.1,0.7,0.7,1.3,1.6,1.3c0.5,0,1.1-0.2,1.5-0.6
		l0.7,1c-0.6,0.5-1.4,0.8-2.3,0.8C111,52.6,109.7,51.4,109.7,49.5z M112.6,47.7c-0.9,0-1.3,0.7-1.4,1.3h2.8
		C114,48.4,113.6,47.7,112.6,47.7z"/>
	<path class="st11" d="M123.9,52.4l-1.5-2.8h-1.2v2.8h-1.7v-7.9h3.6c1.6,0,2.6,1.1,2.6,2.6c0,1.4-0.9,2.2-1.7,2.4l1.7,3H123.9z
		 M124.1,47c0-0.7-0.5-1.1-1.2-1.1h-1.7v2.1h1.7C123.6,48.1,124.1,47.7,124.1,47z"/>
	<path class="st11" d="M130.1,52.4v-0.6c-0.4,0.5-1,0.7-1.8,0.7c-0.9,0-2-0.6-2-1.9c0-1.3,1.1-1.9,2-1.9c0.7,0,1.4,0.2,1.8,0.7v-0.8
		c0-0.6-0.5-1-1.2-1c-0.6,0-1.2,0.2-1.6,0.7l-0.6-1c0.7-0.6,1.6-0.9,2.5-0.9c1.3,0,2.5,0.5,2.5,2.2v3.7H130.1z M130.1,51v-0.7
		c-0.2-0.3-0.7-0.5-1.2-0.5c-0.6,0-1.1,0.3-1.1,0.9c0,0.5,0.5,0.8,1.1,0.8C129.4,51.5,129.9,51.4,130.1,51z"/>
	<path class="st11" d="M133.3,51v-3h-0.9v-1.3h0.9v-1.6h1.5v1.6h1.1V48h-1.1v2.6c0,0.4,0.2,0.6,0.5,0.6c0.2,0,0.4-0.1,0.5-0.2
		l0.3,1.1c-0.2,0.2-0.6,0.4-1.2,0.4C133.9,52.6,133.3,52,133.3,51z"/>
	<path class="st11" d="M136.8,45.1c0-0.5,0.4-0.9,0.9-0.9c0.5,0,0.9,0.4,0.9,0.9s-0.4,0.9-0.9,0.9C137.2,46,136.8,45.6,136.8,45.1z
		 M137,52.4v-5.7h1.5v5.7H137z"/>
	<path class="st11" d="M143.7,52.4v-3.5c0-0.8-0.4-1.1-1-1.1c-0.6,0-1,0.3-1.3,0.7v3.9h-1.5v-5.7h1.5v0.8c0.4-0.4,1-0.9,2-0.9
		c1.2,0,1.8,0.7,1.8,1.8v4.1H143.7z"/>
	<path class="st11" d="M146.5,53.9l0.7-1.1c0.5,0.5,1,0.7,1.8,0.7c0.7,0,1.5-0.3,1.5-1.5v-0.6c-0.4,0.6-1,0.9-1.7,0.9
		c-1.4,0-2.5-1-2.5-2.9c0-1.9,1.1-2.9,2.5-2.9c0.7,0,1.3,0.3,1.7,0.9v-0.7h1.5V52c0,2.2-1.7,2.7-3,2.7
		C148,54.7,147.2,54.5,146.5,53.9z M150.5,50.4v-1.9c-0.2-0.4-0.8-0.7-1.3-0.7c-0.8,0-1.4,0.6-1.4,1.6c0,1,0.6,1.6,1.4,1.6
		C149.7,51,150.3,50.7,150.5,50.4z"/>
	<path class="st11" d="M153,51.7l0.6-1.1c0.4,0.4,1.2,0.8,1.9,0.8c0.6,0,0.9-0.3,0.9-0.6c0-1-3.3-0.2-3.3-2.4c0-1,0.8-1.8,2.3-1.8
		c1,0,1.7,0.3,2.3,0.8l-0.6,1c-0.3-0.4-1-0.7-1.7-0.7c-0.5,0-0.9,0.2-0.9,0.6c0,0.9,3.3,0.1,3.3,2.5c0,1-0.9,1.8-2.4,1.8
		C154.5,52.6,153.6,52.2,153,51.7z"/>
</g>
</svg>
